<?xml version="1.0" encoding="iso-8859-1"?>
<!-- Generator: Adobe Illustrator 19.0.0, SVG Export Plug-In . SVG Version: 6.00 Build 0)  -->
<svg version="1.1" id="Layer_1" xmlns="http://www.w3.org/2000/svg" xmlns:xlink="http://www.w3.org/1999/xlink" x="0px" y="0px"
	 viewBox="0 0 512 512" style="enable-background:new 0 0 512 512;" xml:space="preserve">
<g>
	<g>
		<path d="M511.583,241.256c-0.353-6.219-0.933-12.393-1.733-18.511c-0.4-3.06-0.855-6.104-1.364-9.135
			c-0.255-1.515-0.522-3.026-0.804-4.533c-0.282-1.507-0.577-3.011-0.884-4.51c-0.308-1.499-0.629-2.994-0.964-4.486
			c-1.338-5.965-2.887-11.862-4.639-17.682c-0.876-2.91-1.804-5.8-2.781-8.671c-0.489-1.436-0.99-2.865-1.504-4.29
			C475.022,108.73,430.589,57.617,372.128,27.809c-7.392-3.769-15.003-7.206-22.826-10.269c-0.002-0.001-0.006-0.002-0.009-0.003
			C320.249,6.158,289.579,0.262,258.226,0.012c-0.014,0-0.03,0-0.046,0c-0.014,0-0.029-0.001-0.045-0.001c-0.03,0-0.06,0-0.089,0
			c-0.001,0-0.002,0-0.002,0C257.366,0.001,256.677,0,256,0c-38.733,0-75.959,8.438-110.643,25.081
			c-15.435,7.405-30.181,16.412-43.824,26.763c-9.218,6.983-17.894,14.513-25.995,22.538c-2.261,2.239-4.474,4.519-6.644,6.835
			c-0.144,0.154-0.285,0.307-0.429,0.461c-16.932,18.158-31.061,38.618-42.036,60.86c-5.482,11.108-10.184,22.657-14.046,34.595
			c-0.001,0.002-0.001,0.004-0.002,0.007C4.165,202.527,0,229.06,0,256c0,7.001,0.287,13.983,0.855,20.93
			c0.227,2.779,0.5,5.552,0.817,8.318c0.509,4.438,1.139,8.858,1.877,13.255c1.946,11.592,4.685,23.027,8.191,34.217
			c0.479,1.529,0.971,3.054,1.478,4.574c0.078,0.233,0.151,0.467,0.23,0.7c5.317,15.765,12.174,31.008,20.503,45.481
			c0.002,0.003,0.004,0.007,0.007,0.01c30.719,53.403,79.561,93.972,137.529,114.234C198.593,507.196,227.026,512,256,512
			c0.61,0,1.211-0.002,1.82-0.011c0.001,0,0.003,0,0.004,0c0.027,0,0.056,0,0.082,0c2.068-0.016,4.132-0.056,6.193-0.119
			c0.006,0,0.011,0,0.018,0c2.035-0.063,4.066-0.149,6.094-0.259c0.12-0.007,0.239-0.018,0.359-0.023
			c1.912-0.107,3.822-0.232,5.727-0.38c0.298-0.023,0.594-0.056,0.893-0.08c1.726-0.141,3.45-0.291,5.17-0.465
			c0.464-0.047,0.927-0.108,1.391-0.158c1.549-0.167,3.1-0.335,4.644-0.53c0.712-0.09,1.42-0.198,2.131-0.294
			c1.293-0.175,2.589-0.342,3.879-0.535c1.031-0.155,2.057-0.333,3.084-0.501c0.964-0.157,1.93-0.302,2.892-0.47
			c1.415-0.247,2.823-0.52,4.232-0.791c0.572-0.11,1.148-0.208,1.719-0.322c1.825-0.364,3.646-0.754,5.463-1.158
			c0.151-0.033,0.304-0.063,0.455-0.097c13.784-3.092,27.298-7.336,40.471-12.718c3.935-1.606,7.836-3.316,11.695-5.123
			c11.577-5.423,22.782-11.734,33.437-18.839c60.796-40.534,101.484-105.08,111.634-177.096C511.154,280.146,512,268.025,512,256
			C512,251.084,511.86,246.122,511.583,241.256z M348.97,41.48c0.018,0.008,0.036,0.014,0.053,0.023
			c0.229,0.101,0.461,0.208,0.696,0.311c1.014,0.444,2.026,0.893,3.031,1.35c0.457,0.208,0.912,0.424,1.368,0.634
			c0.778,0.361,1.555,0.72,2.328,1.089c0.514,0.245,1.025,0.496,1.538,0.746c0.709,0.345,1.419,0.689,2.125,1.041
			c0.535,0.267,1.067,0.539,1.601,0.81c0.674,0.343,1.349,0.686,2.019,1.035c0.545,0.284,1.089,0.572,1.632,0.86
			c0.652,0.346,1.303,0.693,1.952,1.045c0.547,0.297,1.092,0.597,1.635,0.897c0.641,0.354,1.28,0.711,1.917,1.072
			c0.542,0.306,1.082,0.614,1.622,0.925c0.631,0.364,1.259,0.73,1.885,1.1c0.539,0.317,1.076,0.634,1.612,0.955
			c0.623,0.374,1.243,0.752,1.863,1.132c0.529,0.324,1.057,0.647,1.583,0.974c0.626,0.391,1.248,0.786,1.87,1.182
			c0.511,0.325,1.023,0.649,1.53,0.977c0.64,0.415,1.276,0.836,1.912,1.257c0.483,0.319,0.967,0.635,1.448,0.958
			c0.681,0.459,1.357,0.925,2.034,1.39c0.427,0.294,0.857,0.583,1.282,0.88c0.977,0.682,1.948,1.372,2.913,2.068
			c0.327,0.236,0.653,0.475,0.979,0.712c0.858,0.626,1.714,1.253,2.563,1.89c0.415,0.312,0.825,0.629,1.238,0.943
			c0.651,0.495,1.302,0.988,1.948,1.49c0.45,0.348,0.894,0.703,1.34,1.056c0.601,0.473,1.202,0.947,1.798,1.426
			c0.463,0.372,0.92,0.749,1.38,1.125c0.572,0.467,1.145,0.936,1.713,1.409c0.463,0.386,0.923,0.776,1.383,1.165
			c0.559,0.473,1.116,0.947,1.671,1.426c0.457,0.394,0.913,0.791,1.367,1.19c0.55,0.482,1.097,0.965,1.643,1.451
			c0.449,0.401,0.895,0.803,1.341,1.207c0.545,0.494,1.087,0.992,1.627,1.49c0.437,0.404,0.873,0.809,1.307,1.215
			c0.543,0.51,1.082,1.023,1.621,1.537c0.422,0.404,0.844,0.807,1.262,1.213c0.548,0.532,1.091,1.068,1.633,1.605
			c0.401,0.396,0.803,0.792,1.201,1.192c0.567,0.569,1.126,1.143,1.686,1.716c0.365,0.374,0.731,0.745,1.094,1.121
			c0.619,0.643,1.231,1.293,1.842,1.943c0.296,0.315,0.596,0.627,0.89,0.943c0.841,0.904,1.674,1.814,2.501,2.731
			c0.06,0.067,0.122,0.132,0.182,0.199c0.893,0.993,1.778,1.993,2.654,3.001c0.225,0.258,0.444,0.521,0.668,0.779
			c0.642,0.746,1.282,1.492,1.916,2.245c0.299,0.356,0.593,0.717,0.89,1.074c0.551,0.663,1.101,1.328,1.645,1.997
			c0.321,0.395,0.637,0.794,0.954,1.19c0.512,0.639,1.023,1.279,1.528,1.924c0.327,0.417,0.65,0.837,0.974,1.257
			c0.489,0.632,0.976,1.266,1.458,1.902c0.325,0.43,0.648,0.862,0.969,1.293c0.474,0.636,0.946,1.273,1.414,1.913
			c0.318,0.435,0.634,0.873,0.951,1.31c0.464,0.646,0.925,1.292,1.382,1.942c0.308,0.437,0.616,0.876,0.922,1.316
			c0.46,0.662,0.915,1.328,1.368,1.995c0.293,0.431,0.584,0.859,0.875,1.292c0.462,0.69,0.918,1.383,1.372,2.077
			c0.273,0.416,0.547,0.831,0.816,1.25c0.474,0.735,0.942,1.474,1.408,2.214c0.239,0.381,0.482,0.759,0.719,1.141
			c0.513,0.825,1.017,1.655,1.52,2.485c0.184,0.303,0.371,0.604,0.553,0.909c0.659,1.101,1.31,2.207,1.951,3.319
			c0.021,0.036,0.042,0.071,0.062,0.107c0.68,1.181,1.349,2.367,2.009,3.561c0.051,0.092,0.099,0.185,0.15,0.276
			c0.59,1.071,1.172,2.145,1.746,3.224c0.167,0.315,0.329,0.632,0.495,0.948c0.452,0.86,0.902,1.722,1.343,2.589
			c0.2,0.393,0.395,0.788,0.593,1.182c0.4,0.795,0.797,1.591,1.187,2.389c0.21,0.432,0.417,0.865,0.626,1.299
			c0.37,0.768,0.736,1.537,1.097,2.31c0.213,0.455,0.422,0.913,0.632,1.369c0.347,0.755,0.691,1.511,1.03,2.272
			c0.209,0.469,0.416,0.938,0.623,1.409c0.332,0.757,0.66,1.515,0.984,2.275c0.201,0.472,0.402,0.946,0.6,1.419
			c0.321,0.766,0.637,1.535,0.948,2.305c0.191,0.471,0.382,0.942,0.57,1.414c0.313,0.786,0.62,1.574,0.924,2.363
			c0.177,0.457,0.354,0.915,0.529,1.374c0.312,0.823,0.614,1.647,0.917,2.474c0.158,0.431,0.317,0.86,0.473,1.292
			c0.321,0.892,0.631,1.786,0.941,2.684c0.127,0.368,0.258,0.735,0.383,1.103c0.365,1.075,0.72,2.156,1.071,3.237
			c0.062,0.193,0.128,0.384,0.189,0.577c0.417,1.3,0.823,2.604,1.218,3.915c0.009,0.028,0.017,0.056,0.024,0.085
			c0.377,1.252,0.742,2.509,1.099,3.769c0.104,0.368,0.201,0.738,0.304,1.106c0.256,0.923,0.51,1.845,0.755,2.773
			c0.122,0.465,0.239,0.933,0.359,1.4c0.215,0.834,0.427,1.666,0.633,2.503c0.126,0.513,0.247,1.028,0.37,1.543
			c0.189,0.792,0.376,1.585,0.557,2.38c0.124,0.545,0.244,1.092,0.363,1.638c0.169,0.768,0.335,1.538,0.496,2.31
			c0.117,0.562,0.232,1.126,0.345,1.691c0.153,0.759,0.302,1.52,0.447,2.282c0.11,0.576,0.217,1.151,0.323,1.727
			c0.138,0.756,0.272,1.512,0.402,2.269c0.1,0.582,0.2,1.165,0.297,1.75c0.125,0.755,0.243,1.51,0.359,2.267
			c0.091,0.589,0.183,1.178,0.269,1.766c0.111,0.758,0.215,1.517,0.318,2.276c0.081,0.59,0.164,1.179,0.239,1.77
			c0.1,0.775,0.191,1.553,0.283,2.33c0.068,0.575,0.14,1.151,0.204,1.727c0.011,0.098,0.02,0.196,0.03,0.294
			c-15.811-2.214-30.297-11.563-41.199-26.712c-12.528-17.409-18.788-40.186-17.632-64.149l0.023-0.377
			c1.251-24.053-12.68-46.345-34.668-55.471c-40.434-16.764-48.846-29.451-48.673-32.927
			C346.361,47.626,347.286,44.508,348.97,41.48z M36.189,176.336c0.777-2.148,1.586-4.28,2.423-6.399
			c0.154-0.39,0.309-0.779,0.465-1.168c0.853-2.126,1.732-4.238,2.645-6.333c0.128-0.294,0.26-0.585,0.39-0.879
			c0.952-2.162,1.93-4.31,2.945-6.437c0.021-0.044,0.041-0.09,0.062-0.135c1.024-2.142,2.088-4.261,3.176-6.367
			c0.16-0.309,0.317-0.62,0.477-0.928c1.049-2.008,2.129-3.998,3.234-5.973c0.205-0.366,0.411-0.731,0.618-1.095
			c1.116-1.968,2.257-3.92,3.43-5.854c0.179-0.296,0.363-0.588,0.543-0.883c1.237-2.019,2.497-4.025,3.794-6.005
			c0.013-0.021,0.028-0.041,0.042-0.062c1.291-1.969,2.62-3.911,3.971-5.84c0.195-0.278,0.386-0.558,0.582-0.835
			c1.302-1.841,2.636-3.662,3.991-5.465c0.259-0.345,0.519-0.689,0.78-1.032c1.358-1.785,2.74-3.554,4.152-5.3
			c0.239-0.296,0.482-0.589,0.722-0.884c1.475-1.809,2.971-3.601,4.501-5.366c0.077-0.089,0.157-0.176,0.234-0.265
			c1.502-1.726,3.035-3.429,4.589-5.113c0.228-0.247,0.452-0.496,0.681-0.742c1.538-1.652,3.105-3.279,4.694-4.89
			c0.317-0.322,0.633-0.642,0.952-0.961c1.582-1.585,3.187-3.151,4.817-4.695c0.3-0.285,0.605-0.565,0.908-0.849
			c1.694-1.587,3.408-3.157,5.153-4.698c0.141-0.124,0.286-0.246,0.427-0.37c1.707-1.499,3.44-2.974,5.196-4.429
			c0.167-0.139,0.333-0.279,0.501-0.417c0.848,0.983,1.677,1.992,2.484,3.023c15.781,20.167,20.448,49.398,15.773,58.509
			c-0.697,1.358-0.971,1.392-2.164,1.346c-0.002,0-0.004,0-0.007-0.001c-21.728-0.857-41.216,12.181-58.386,23.71
			c-8.966,6.019-17.432,11.705-24.026,13.768c-2.117,0.662-3.664,0.882-4.916,0.707C36.096,176.602,36.142,176.469,36.189,176.336z
			 M339.919,463.647c0,0.003-0.001,0.007-0.001,0.01c-0.316,3.698-0.755,7.397-1.312,11.057c-1.496,0.565-2.995,1.119-4.5,1.653
			c-0.373,0.133-0.748,0.258-1.122,0.388c-1.235,0.431-2.473,0.855-3.714,1.264c-0.58,0.191-1.161,0.376-1.742,0.563
			c-1.056,0.339-2.115,0.673-3.176,0.997c-0.615,0.188-1.232,0.374-1.849,0.557c-1.071,0.317-2.144,0.626-3.218,0.927
			c-0.578,0.163-1.155,0.328-1.734,0.486c-1.322,0.361-2.648,0.707-3.976,1.043c-0.321,0.081-0.64,0.169-0.961,0.249
			c-1.631,0.406-3.267,0.791-4.906,1.162c-0.519,0.117-1.039,0.225-1.558,0.338c-1.146,0.25-2.294,0.495-3.444,0.729
			c-0.629,0.127-1.258,0.249-1.888,0.371c-1.066,0.207-2.134,0.406-3.202,0.599c-0.637,0.115-1.273,0.228-1.91,0.337
			c-1.134,0.194-2.271,0.376-3.407,0.553c-0.552,0.086-1.103,0.177-1.656,0.258c-1.668,0.247-3.34,0.481-5.015,0.692
			c-0.206,0.026-0.412,0.047-0.618,0.071c-1.487,0.184-2.977,0.353-4.47,0.509c-0.584,0.061-1.17,0.114-1.755,0.169
			c-1.13,0.109-2.261,0.213-3.394,0.305c-0.646,0.052-1.291,0.101-1.938,0.149c-1.107,0.081-2.216,0.154-3.327,0.22
			c-0.623,0.037-1.247,0.075-1.871,0.107c-0.286,0.014-0.573,0.023-0.859,0.037c-1.139-10.214-1.25-21.138-0.307-32.089
			c2-23.157,8.375-44.361,17.952-59.71c7.672-12.294,16.492-19.218,24.4-19.218c0.384,0,0.766,0.017,1.145,0.049
			c8.186,0.706,16.161,9.186,21.878,23.267C339.271,418.514,341.919,440.497,339.919,463.647z M381.007,453.524
			c-0.066,0.041-0.129,0.085-0.195,0.127c-0.506,0.321-1.021,0.629-1.529,0.946c-1.061,0.659-2.121,1.317-3.192,1.96
			c-0.624,0.374-1.254,0.739-1.883,1.107c-0.968,0.569-1.937,1.135-2.913,1.69c-0.668,0.38-1.34,0.751-2.011,1.124
			c-0.952,0.529-1.906,1.052-2.865,1.567c-0.682,0.366-1.367,0.729-2.054,1.09c-0.721,0.378-1.446,0.747-2.17,1.117
			c2.08-26.119-1.133-51.243-9.104-70.876c-9.11-22.437-23.526-35.602-40.59-37.072c-17.061-1.477-33.527,9.021-46.346,29.564
			c-11.403,18.274-18.947,42.984-21.245,69.582c-0.993,11.529-0.925,23.072,0.134,34.03c-0.956-0.045-1.911-0.094-2.865-0.149
			c-0.526-0.03-1.053-0.06-1.578-0.094c-1.152-0.075-2.303-0.16-3.453-0.253c-0.362-0.028-0.723-0.052-1.085-0.083
			c-1.5-0.126-2.999-0.267-4.495-0.422c-0.375-0.039-0.749-0.085-1.124-0.125c-1.129-0.122-2.256-0.252-3.383-0.391
			c-0.528-0.066-1.055-0.135-1.582-0.204c-0.988-0.129-1.976-0.264-2.963-0.405c-0.545-0.078-1.09-0.157-1.635-0.238
			c-1.025-0.155-2.049-0.318-3.072-0.486c-0.472-0.077-0.944-0.151-1.415-0.232c-1.477-0.253-2.953-0.515-4.424-0.796
			c-0.09-0.017-0.178-0.036-0.268-0.053c-1.386-0.265-2.768-0.545-4.148-0.836c-0.485-0.102-0.969-0.21-1.454-0.316
			c-0.996-0.216-1.991-0.437-2.984-0.668c-0.54-0.125-1.08-0.253-1.62-0.382c-0.965-0.23-1.929-0.468-2.892-0.711
			c-0.514-0.13-1.028-0.258-1.542-0.392c-1.117-0.29-2.233-0.591-3.347-0.898c-0.338-0.094-0.678-0.182-1.016-0.277
			c-0.063-0.018-0.127-0.038-0.19-0.056c39.641-61.747,56.87-105.924,68.515-135.779c14.444-37.032,18.019-42.977,35.288-42.977
			c21.821,0,42.685,13.627,58.745,38.37c17.026,26.229,26.403,61.322,26.403,98.813
			C381.462,444.132,381.309,448.849,381.007,453.524z M403.686,437.151c-0.383-40.89-10.969-79.397-29.954-108.643
			c-20.306-31.282-47.8-48.511-77.419-48.511c-33.739,0-42.129,21.511-56.027,57.149c-11.607,29.761-28.938,74.174-69.555,136.544
			c-37.197-14.574-69.919-38.44-95.179-69.112c1.674,0.637,3.355,1.267,5.049,1.881c15.458,5.615,28.417,8.413,39.357,8.413
			c9.179,0,16.938-1.971,23.549-5.901c21.217-12.612,25.662-42.084,31.289-79.397c5.242-34.758,11.766-78.017,33.035-123.39
			c5.733-12.232,9.803-24.84,12.091-37.472c1.095-6.049-2.918-11.841-8.968-12.937c-6.046-1.095-11.839,2.92-12.937,8.968
			c-1.946,10.737-5.426,21.502-10.344,31.993c-22.642,48.303-29.433,93.334-34.891,129.518c-4.749,31.487-8.5,56.358-20.653,63.581
			c-8.19,4.87-22.563,3.462-43.933-4.301c-12.877-4.676-25.133-10.023-36.478-15.913c-0.383-0.686-0.766-1.371-1.141-2.061
			c-0.568-1.043-1.132-2.087-1.682-3.137c-0.614-1.173-1.213-2.354-1.808-3.536c-0.529-1.052-1.056-2.105-1.568-3.164
			c-0.579-1.198-1.14-2.402-1.697-3.609c-0.492-1.064-0.984-2.127-1.459-3.197c-0.542-1.222-1.065-2.451-1.586-3.682
			c-0.453-1.07-0.908-2.138-1.345-3.216c-0.505-1.244-0.989-2.498-1.473-3.751c-0.416-1.08-0.837-2.157-1.237-3.243
			c-0.466-1.266-0.91-2.539-1.356-3.812c-0.378-1.084-0.762-2.167-1.125-3.258c-0.43-1.289-0.834-2.587-1.24-3.884
			c-0.341-1.089-0.689-2.174-1.014-3.267c-0.39-1.309-0.752-2.627-1.119-3.942c-0.304-1.093-0.617-2.183-0.905-3.28
			c-0.349-1.33-0.671-2.668-0.997-4.005c-0.267-1.093-0.544-2.185-0.795-3.282c-0.309-1.35-0.588-2.708-0.873-4.064
			c-0.23-1.094-0.472-2.186-0.686-3.285c-0.268-1.374-0.504-2.754-0.748-4.132c-0.193-1.089-0.398-2.174-0.575-3.265
			c-0.228-1.407-0.422-2.82-0.624-4.232c-0.154-1.071-0.323-2.138-0.462-3.212c-0.187-1.446-0.338-2.897-0.499-4.346
			c-0.116-1.046-0.248-2.091-0.351-3.14c-0.147-1.51-0.254-3.026-0.372-4.541c-0.077-0.993-0.172-1.982-0.237-2.976
			c-0.108-1.675-0.175-3.356-0.247-5.034c-0.036-0.836-0.092-1.671-0.12-2.508c-0.078-2.517-0.12-5.038-0.12-7.562
			c0-19.667,2.435-39.09,7.238-57.925c2.229,0.612,4.657,0.967,7.303,0.967c3.27,0,6.866-0.534,10.813-1.77
			c9.672-3.029,19.442-9.588,29.784-16.532c14.337-9.625,30.599-20.537,45.066-19.949c9.962,0.409,18.298-4.482,22.888-13.426
			c10.832-21.118-0.817-60.368-18.048-82.389c-0.707-0.904-1.437-1.783-2.169-2.659c0.177-0.12,0.355-0.24,0.532-0.36
			c0.952-0.641,1.907-1.277,2.867-1.903c0.612-0.4,1.228-0.796,1.843-1.189c0.955-0.61,1.917-1.213,2.881-1.809
			c0.613-0.38,1.225-0.759,1.842-1.132c1.016-0.616,2.039-1.219,3.064-1.819c0.565-0.331,1.129-0.667,1.696-0.993
			c1.245-0.715,2.499-1.414,3.757-2.105c0.353-0.194,0.702-0.395,1.055-0.587c1.537-0.835,3.084-1.647,4.638-2.446
			c19.742,14.126,35.031,33.901,43.382,56.268c2.15,5.759,8.565,8.684,14.32,6.534c5.759-2.15,8.684-8.562,6.534-14.32
			c-8.431-22.58-22.824-42.892-41.322-58.74c19.084-7.348,38.916-12.088,59.304-14.189c-5.83,9.35-8.92,19.433-8.92,29.708
			c0,23.678,27.759,45.138,84.861,65.604c19.763,7.092,32.997,26.227,32.933,47.648v0.467c0,38.184,11.929,74.187,33.588,101.378
			c22.252,27.934,52.06,43.317,83.938,43.317c8.828,0,17.507-1.183,25.967-3.526C472.342,358.748,444.05,404.215,403.686,437.151z
			 M489.651,262.072c-0.01,0.398-0.019,0.798-0.031,1.197c-0.06,1.961-0.144,3.921-0.253,5.882c-0.02,0.359-0.045,0.719-0.066,1.079
			c-0.116,1.914-0.249,3.828-0.411,5.739c-0.012,0.15-0.022,0.302-0.036,0.453c-0.172,2.001-0.377,3.998-0.6,5.992
			c-0.024,0.214-0.049,0.429-0.073,0.642c-9.721,4.21-19.873,6.34-30.255,6.34c-52.529,0-95.265-54.924-95.265-122.435v-0.434
			c0.093-30.789-19.065-58.37-47.677-68.639c-51.752-18.549-70.115-35.645-70.115-44.65c0-13.309,8.663-23.84,16.998-30.89
			c0.263,0.007,0.526,0.008,0.788,0.016c0.771,0.022,1.542,0.052,2.313,0.081c0.977,0.037,1.954,0.073,2.93,0.122
			c0.782,0.039,1.564,0.087,2.344,0.134c0.959,0.057,1.919,0.116,2.876,0.186c0.793,0.057,1.583,0.121,2.374,0.186
			c0.944,0.078,1.888,0.158,2.83,0.247c0.796,0.075,1.591,0.156,2.385,0.239c0.935,0.098,1.868,0.2,2.8,0.309
			c0.798,0.092,1.596,0.191,2.393,0.293c0.925,0.118,1.849,0.242,2.771,0.371c0.799,0.111,1.598,0.227,2.395,0.346
			c0.918,0.138,1.834,0.283,2.75,0.432c0.796,0.129,1.592,0.26,2.386,0.398c0.914,0.158,1.827,0.325,2.738,0.494
			c0.792,0.147,1.586,0.295,2.376,0.45c0.909,0.179,1.816,0.366,2.723,0.557c0.789,0.165,1.578,0.329,2.365,0.502
			c0.909,0.2,1.815,0.411,2.721,0.621c0.778,0.18,1.557,0.359,2.333,0.549c0.915,0.223,1.826,0.457,2.739,0.691
			c0.765,0.196,1.529,0.388,2.292,0.592c0.922,0.247,1.84,0.506,2.758,0.765c0.748,0.209,1.498,0.415,2.244,0.633
			c0.941,0.275,1.878,0.563,2.815,0.85c0.718,0.219,1.437,0.432,2.153,0.659c0.528,0.167,1.052,0.346,1.578,0.516
			c-2.415,5.163-3.805,10.589-4.077,16.125c-0.932,18.94,19.475,36.794,62.381,54.58c13.302,5.522,21.728,19.085,20.972,33.651
			l-0.022,0.355c-0.002,0.046-0.006,0.091-0.008,0.137c-1.415,28.994,6.327,56.799,21.794,78.295
			c15.524,21.572,36.982,34.373,60.614,36.242c0.012,1.012,0.043,2.023,0.043,3.033
			C489.738,258.024,489.704,260.047,489.651,262.072z"/>
	</g>
</g>
<g>
	<g>
		<path d="M220.971,129.995c-1.945-5.831-8.245-8.985-14.079-7.04c-4.978,1.66-8.002,6.495-7.574,11.501
			c0.393,4.933,4.064,9.17,9.163,10.071c0.654,0.116,1.306,0.171,1.948,0.171c5.299,0,9.995-3.799,10.948-9.198
			C221.698,133.675,221.556,131.751,220.971,129.995z"/>
	</g>
</g>
<g>
	<g>
		<path d="M122.184,240.218c-8.471-15.013-20.439-23.28-33.697-23.28c-13.259,0-25.226,8.268-33.697,23.28
			c-7.339,13.004-11.381,30.053-11.381,48.007c0,17.954,4.042,35.003,11.381,48.008c8.471,15.013,20.439,23.28,33.697,23.28
			c13.259,0,25.226-8.268,33.697-23.28c7.339-13.005,11.381-30.053,11.381-48.008C133.565,270.271,129.524,253.222,122.184,240.218z
			 M88.487,337.252c-10.771,0-22.817-20.968-22.817-49.027s12.047-49.026,22.817-49.026c10.771,0,22.817,20.966,22.817,49.026
			S99.258,337.252,88.487,337.252z"/>
	</g>
</g>
<g>
</g>
<g>
</g>
<g>
</g>
<g>
</g>
<g>
</g>
<g>
</g>
<g>
</g>
<g>
</g>
<g>
</g>
<g>
</g>
<g>
</g>
<g>
</g>
<g>
</g>
<g>
</g>
<g>
</g>
</svg>
