<?xml version="1.0" encoding="iso-8859-1"?>
<!-- Generator: Adobe Illustrator 19.0.0, SVG Export Plug-In . SVG Version: 6.00 Build 0)  -->
<svg version="1.1" id="Layer_1" xmlns="http://www.w3.org/2000/svg" xmlns:xlink="http://www.w3.org/1999/xlink" x="0px" y="0px"
	 viewBox="0 0 512 512" style="enable-background:new 0 0 512 512;" xml:space="preserve">
<g>
	<g>
		<path d="M384.032,342.047c-0.164-0.808-0.405-1.606-0.721-2.377c-0.316-0.76-0.708-1.492-1.163-2.175
			c-0.468-0.697-0.999-1.342-1.581-1.923c-2.934-2.934-7.297-4.287-11.406-3.465c-0.809,0.164-1.606,0.417-2.365,0.733
			c-0.771,0.316-1.505,0.709-2.188,1.163c-0.695,0.455-1.34,0.986-1.922,1.568c-0.582,0.582-1.113,1.227-1.568,1.923
			c-0.455,0.683-0.847,1.415-1.163,2.175c-0.316,0.77-0.569,1.568-0.721,2.377c-0.164,0.809-0.253,1.644-0.253,2.466
			c0,3.326,1.353,6.588,3.705,8.939c2.352,2.352,5.615,3.706,8.94,3.706s6.588-1.353,8.94-3.706
			c2.352-2.351,3.705-5.613,3.705-8.939C384.272,343.691,384.196,342.855,384.032,342.047z"/>
	</g>
</g>
<g>
	<g>
		<path d="M506.719,422.95c-7.662-27.68-23.955-61.331-47.212-97.619c7.436-21.763,11.477-45.087,11.477-69.336
			c0-118.538-96.438-214.976-214.976-214.976c-1.698,0-3.394,0.024-5.089,0.065c-0.731,0.016-1.459,0.048-2.189,0.072
			c-0.914,0.032-1.83,0.062-2.743,0.105c-0.988,0.046-1.973,0.104-2.957,0.162c-0.587,0.035-1.175,0.071-1.762,0.111
			c-1.216,0.082-2.43,0.176-3.642,0.279c-0.23,0.02-0.462,0.04-0.692,0.062c-17.429,1.54-34.271,5.157-50.266,10.621
			c-36.344-23.293-70.044-39.602-97.748-47.25C55.11-4.088,30.097-0.951,14.578,14.565C-9.127,38.272-3.844,84.446,29.855,148.1
			c6.626,12.517,14.21,25.419,22.643,38.583c-7.431,21.757-11.467,45.07-11.467,69.311c0,96.929,64.489,179.068,152.81,205.799
			c0.248,0.09,0.495,0.181,0.75,0.257c0.553,0.164,1.112,0.303,1.665,0.463c1.282,0.372,2.571,0.726,3.863,1.074
			c1.038,0.278,2.075,0.559,3.117,0.822c1.787,0.453,3.584,0.881,5.388,1.289c0.754,0.169,1.509,0.333,2.265,0.494
			c1.765,0.378,3.54,0.736,5.32,1.07c0.463,0.087,0.923,0.183,1.386,0.266c2.237,0.406,4.487,0.77,6.746,1.105
			c0.535,0.08,1.072,0.15,1.607,0.225c1.899,0.267,3.806,0.51,5.722,0.726c0.488,0.056,0.974,0.116,1.462,0.168
			c2.305,0.245,4.621,0.456,6.948,0.627c0.406,0.029,0.812,0.051,1.218,0.077c1.944,0.132,3.895,0.237,5.851,0.316
			c0.62,0.025,1.239,0.051,1.86,0.071c2.323,0.075,4.652,0.126,6.993,0.126c1.672,0,3.341-0.025,5.008-0.063
			c0.462-0.01,0.922-0.025,1.382-0.039c1.304-0.038,2.605-0.087,3.904-0.149c0.391-0.019,0.781-0.035,1.171-0.056
			c3.466-0.182,6.92-0.448,10.357-0.794c0.106-0.01,0.211-0.021,0.316-0.033c16.165-1.651,31.983-5.109,47.223-10.302
			c13.146,8.421,26.032,15.994,38.533,22.612c37.522,19.865,68.971,29.855,93.322,29.855c16.96-0.001,30.481-4.847,40.212-14.578
			C512.974,481.885,516.097,456.829,506.719,422.95z M166.725,88.678c1.225-0.656,2.457-1.302,3.698-1.932
			c1.487-0.751,2.981-1.49,4.487-2.2c0.444-0.211,0.889-0.417,1.335-0.625c20.932-9.692,43.574-15.555,66.758-17.156
			c0.12-0.008,0.239-0.015,0.359-0.023v89.719c-0.019,0.166-0.034,0.331-0.047,0.5c-0.336,4.604-4.212,8.211-8.825,8.211
			s-8.49-3.608-8.825-8.211c-0.013-0.167-0.028-0.333-0.047-0.498v-20.1c0-18.837-15.325-34.163-34.163-34.163
			s-34.163,15.325-34.163,34.163v43.036c0,4.891-3.98,8.872-8.872,8.872s-8.872-3.98-8.872-8.872v-73.022
			c8.069-6.295,16.657-11.954,25.691-16.897C165.731,89.209,166.228,88.944,166.725,88.678z M52.208,136.268
			C25.426,85.679,18.043,46.867,32.463,32.449c13.005-13.006,53.442-11.358,125.752,32.117
			c-13.971,7.128-27.197,15.796-39.387,25.91c-0.419,0.346-0.803,0.725-1.168,1.118c-21.811,18.384-39.937,41.01-53.069,66.606
			C60.147,150.77,56.01,143.449,52.208,136.268z M185.552,432.103c-69.806-28.028-119.229-96.401-119.229-176.109
			c0-14.407,1.622-28.441,4.68-41.938c28.591,40.264,64.255,82.142,104.527,122.413c3.33,3.33,6.672,6.62,10.022,9.885V432.103z
			 M294.563,441.734c-0.443,0.094-0.891,0.18-1.339,0.269c-2.021,0.403-4.054,0.769-6.098,1.108
			c-0.888,0.147-1.773,0.298-2.663,0.432c-0.955,0.144-1.915,0.273-2.874,0.403c-1.125,0.152-2.253,0.293-3.383,0.425
			c-0.792,0.092-1.582,0.19-2.376,0.272c-1.869,0.194-3.743,0.364-5.624,0.503c-0.548,0.041-1.099,0.068-1.648,0.105
			c-1.544,0.101-3.092,0.185-4.642,0.249c-0.598,0.025-1.196,0.049-1.797,0.068c-2.033,0.065-4.071,0.109-6.114,0.109
			c-1.787,0-3.571-0.03-5.353-0.08c-0.555-0.015-1.107-0.043-1.66-0.063c-1.234-0.046-2.467-0.096-3.699-0.166
			c-0.642-0.035-1.282-0.08-1.923-0.123c-1.152-0.077-2.304-0.161-3.455-0.258c-0.654-0.056-1.306-0.113-1.958-0.175
			c-1.157-0.109-2.312-0.233-3.466-0.364c-0.625-0.071-1.249-0.138-1.872-0.214c-1.267-0.157-2.53-0.331-3.792-0.513
			c-0.497-0.072-0.996-0.134-1.493-0.21c-1.673-0.254-3.342-0.532-5.008-0.831c-0.764-0.137-1.523-0.292-2.284-0.439
			c-0.91-0.176-1.821-0.349-2.729-0.537c-0.96-0.2-1.916-0.412-2.871-0.627c-0.665-0.148-1.33-0.298-1.993-0.455
			c-0.537-0.126-1.072-0.262-1.609-0.393v-69.994c29.08,26.571,58.496,50.45,87.101,70.76
			C296.818,441.251,295.693,441.5,294.563,441.734z M248.45,369.837c-12.567-10.869-25.136-22.292-37.607-34.212v-12.95
			c0.032-0.24,0.056-0.483,0.075-0.727c0.616-8.442,7.725-15.055,16.185-15.055c8.46,0,15.569,6.612,16.184,15.055
			c0.018,0.243,0.043,0.486,0.075,0.723v27.261C243.362,357.141,245.209,363.924,248.45,369.837z M271.724,389.326
			c4.147,1.392,8.578,2.157,13.186,2.157c22.911,0,41.55-18.638,41.55-41.548v-57.81c0-8.966,7.294-16.258,16.258-16.258
			s16.258,7.294,16.258,16.258v14.453c0,6.983,5.661,12.646,12.646,12.646s12.646-5.663,12.646-12.646v-14.453
			c0-22.91-18.64-41.55-41.55-41.55s-41.55,18.64-41.55,41.55v57.81c0,8.964-7.294,16.257-16.258,16.257
			s-16.258-7.294-16.258-16.257V321.03c0-0.976-0.113-1.927-0.326-2.84c-2.479-20.667-20.225-36.586-41.223-36.586
			c-18.912,0-35.18,12.912-40.039,30.576c-41.996-42.701-78.48-86.892-106.369-128.587c8.174-19.72,19.583-37.77,33.56-53.491
			v49.298c0,18.837,15.325,34.163,34.163,34.163s34.163-15.325,34.163-34.163v-43.036c0-4.891,3.98-8.872,8.872-8.872
			c4.893,0,8.872,3.98,8.872,8.872v21.518c0,0.917,0.099,1.811,0.287,2.672c2.117,16.908,16.669,29.909,33.878,29.909
			c17.194,0,31.735-12.982,33.871-29.869c0.191-0.874,0.291-1.782,0.291-2.714V66.742c98.718,6.53,177.039,88.91,177.039,189.252
			c0,22.464-3.935,44.023-11.136,64.037c-0.865,1.405-1.439,2.955-1.707,4.564c-10.621,27.285-27.383,51.523-48.579,71.013V382.45
			c0-6.983-5.661-12.646-12.646-12.646s-12.646,5.663-12.646,12.646v32.771c-9.626,6.246-19.851,11.642-30.568,16.084
			C309.892,418.919,290.88,404.835,271.724,389.326z M479.552,479.539c-14.417,14.419-53.227,7.036-103.818-19.745
			c-7.162-3.791-14.46-7.915-21.871-12.345c8.61-4.416,16.959-9.43,24.995-15.036c0.393-0.274,0.764-0.574,1.12-0.888
			c28.278-20.031,51.531-46.71,67.451-77.748C490.907,426.085,492.567,466.526,479.552,479.539z"/>
	</g>
</g>
<g>
</g>
<g>
</g>
<g>
</g>
<g>
</g>
<g>
</g>
<g>
</g>
<g>
</g>
<g>
</g>
<g>
</g>
<g>
</g>
<g>
</g>
<g>
</g>
<g>
</g>
<g>
</g>
<g>
</g>
</svg>
