<?xml version="1.0" encoding="iso-8859-1"?>
<!-- Generator: Adobe Illustrator 19.0.0, SVG Export Plug-In . SVG Version: 6.00 Build 0)  -->
<svg version="1.1" id="Layer_1" xmlns="http://www.w3.org/2000/svg" xmlns:xlink="http://www.w3.org/1999/xlink" x="0px" y="0px"
	 viewBox="0 0 512 512" style="enable-background:new 0 0 512 512;" xml:space="preserve">
<g>
	<g>
		<g>
			<rect fill="#C9AF80" x="189.861" y="99.214" width="33.071" height="15.925"/>
			<rect fill="#C9AF80" x="41.034" y="231.5" width="66.143" height="15.925"/>
			<rect fill="#C9AF80" x="123.718" y="264.572" width="57.872" height="15.925"/>
			<rect fill="#C9AF80" x="189.861" y="305.913" width="49.607" height="15.925"/>
			<path fill="#C9AF80" d="M437.019,74.98C388.667,26.628,324.379,0,256,0S123.333,26.628,74.98,74.98C26.628,123.333,0,187.62,0,256
				s26.628,132.668,74.98,181.019C123.333,485.371,187.62,512,256,512s132.667-26.629,181.019-74.981S512,324.379,512,255.999
				S485.371,123.333,437.019,74.98z M491.452,208.745l-148.83,148.032c5.619-13.095,10.117-26.626,13.454-40.49l129.822-129.824
				C488.099,193.778,489.957,201.211,491.452,208.745z M480.156,169.681L361.111,288.726c1.249-9.849,1.93-19.826,2.038-29.894
				l108.525-108.526C474.786,156.64,477.624,163.099,480.156,169.681z M463.821,135.638L362.477,236.982
				c-0.607-8.363-1.619-16.646-3.025-24.832l93.511-93.51C456.834,124.165,460.449,129.839,463.821,135.638z M443.291,105.788
				l-87.752,87.751c-1.812-7.252-3.944-14.412-6.389-21.464l81.155-81.156C434.86,95.721,439.183,100.686,443.291,105.788z
				 M418.97,79.732l-76.089,76.087c-2.726-6.398-5.726-12.691-8.985-18.869l70.053-70.053
				C409.106,70.946,414.112,75.232,418.97,79.732z M390.945,57.378l-65.226,65.225c-3.484-5.683-7.202-11.254-11.154-16.7
				l59.215-59.215C379.638,49.993,385.359,53.565,390.945,57.378z M358.956,38.988l-54.22,54.22
				c-4.193-5.072-8.581-9.977-13.149-14.708l47.761-47.761C346.002,33.199,352.547,35.942,358.956,38.988z M322.377,25.187
				l-42.205,42.205c-4.864-4.448-9.895-8.711-15.08-12.775l34.712-34.711C307.434,21.304,314.964,23.067,322.377,25.187z
				 M253.372,15.957c0.876-0.01,1.75-0.032,2.628-0.032c8.093,0,16.125,0.4,24.075,1.187l-27.958,27.958
				c-5.547-3.82-11.239-7.422-17.06-10.797L253.372,15.957z M229.419,17.388l-9.014,9.014c-4.059-2.014-8.172-3.92-12.33-5.714
				C215.107,19.271,222.228,18.175,229.419,17.388z M86.241,425.757c-1.55-1.55-3.071-3.12-4.574-4.705h124.726v-15.925H67.838
				C34.199,362.852,15.925,310.832,15.925,256c0-51.31,16.003-100.154,45.622-140.86h111.774V99.214H74.174
				c3.845-4.446,7.867-8.775,12.066-12.974c27.18-27.18,59.734-47.029,95.261-58.579c46.764,15.227,88.687,45.317,118.25,84.955
				c19.363,25.963,33.036,55.002,40.593,85.814H107.177v15.925H343.67c2.369,13.625,3.582,27.539,3.582,41.645
				c0,0.103-0.003,0.204-0.003,0.306h-58.178v15.925h57.636c-0.807,12.205-2.518,24.237-5.123,36.023l-0.13,0.13l0.084,0.084
				c-7.261,32.708-21.356,63.518-41.783,90.909c-29.565,39.643-71.49,69.737-118.257,84.962
				C145.973,472.788,113.421,452.938,86.241,425.757z M254.538,496.057c-15.781-0.093-31.325-1.694-46.465-4.747
				c40.653-17.534,76.778-45.763,103.574-81.267l182.83-181.845c0.996,8.686,1.527,17.474,1.58,26.339L254.538,496.057z
				 M425.757,425.757c-23.694,23.694-51.474,41.812-81.743,53.725l135.469-135.469C467.57,374.285,449.452,402.064,425.757,425.757z
				 M489.7,311.274L311.273,489.699c-10.868,2.549-21.964,4.349-33.222,5.368l217.016-217.016
				C494.048,289.311,492.248,300.404,489.7,311.274z"/>
		</g>
	</g>
</g>
<g>
</g>
<g>
</g>
<g>
</g>
<g>
</g>
<g>
</g>
<g>
</g>
<g>
</g>
<g>
</g>
<g>
</g>
<g>
</g>
<g>
</g>
<g>
</g>
<g>
</g>
<g>
</g>
<g>
</g>
</svg>
