<?xml version="1.0" encoding="iso-8859-1"?>
<!-- Generator: Adobe Illustrator 19.0.0, SVG Export Plug-In . SVG Version: 6.00 Build 0)  -->
<svg version="1.1" id="Layer_1" xmlns="http://www.w3.org/2000/svg" xmlns:xlink="http://www.w3.org/1999/xlink" x="0px" y="0px"
	 viewBox="0 0 512 512" style="enable-background:new 0 0 512 512;" xml:space="preserve">
<g>
	<g>
		<path d="M189.217,211.478c-37.448,0-66.783,19.556-66.783,44.522s29.334,44.522,66.783,44.522S256,280.966,256,256
			S226.666,211.478,189.217,211.478z M189.217,278.261c-25.482,0-44.522-11.753-44.522-22.261c0-10.508,19.04-22.261,44.522-22.261
			s44.522,11.753,44.522,22.261C233.739,266.508,214.699,278.261,189.217,278.261z"/>
	</g>
</g>
<g>
	<g>
		<path d="M356.174,355.617c-27.567,0-49.16,14.911-49.16,33.948c0,19.036,21.593,33.948,49.16,33.948
			c27.567,0,49.16-14.911,49.16-33.948C405.334,370.529,383.741,355.617,356.174,355.617z M356.174,401.252
			c-16.686,0-26.899-7.567-26.899-11.687c0-4.12,10.213-11.687,26.899-11.687c16.686,0,26.899,7.567,26.899,11.687
			C383.073,393.686,372.86,401.252,356.174,401.252z"/>
	</g>
</g>
<g>
	<g>
		<path d="M367.304,267.135l-34.838,0.001c-22.192,0.001-43.677,9.247-58.948,25.365c-18.689,19.728-50.204,31.506-84.301,31.506
			c-34.099,0-65.614-11.778-84.303-31.508c-4.228-4.464-11.272-4.654-15.735-0.426c-4.463,4.227-4.654,11.272-0.426,15.735
			c22.813,24.083,60.369,38.46,100.464,38.46c40.093,0,77.649-14.376,100.462-38.457c11.086-11.703,26.682-18.413,42.788-18.414
			l34.837-0.001c6.147,0,11.13-4.984,11.13-11.13C378.435,272.118,373.451,267.135,367.304,267.135z"/>
	</g>
</g>
<g>
	<g>
		<path d="M437.02,74.98C388.668,26.627,324.381,0,256,0C187.62,0,123.333,26.628,74.981,74.98C26.628,123.333,0,187.619,0,256
			c0,7.788,0.363,15.519,1.046,23.185c0.009,0.109,0.016,0.218,0.028,0.326c5.384,59.506,31.14,114.743,73.906,157.509
			C123.333,485.372,187.62,512,256,512c68.381,0,132.667-26.628,181.02-74.98c42.763-42.763,68.518-97.995,73.905-157.493
			c0.013-0.122,0.021-0.246,0.031-0.37C511.638,271.501,512,263.779,512,256C512,187.619,485.372,123.333,437.02,74.98z
			 M489.468,267.13l-55.381,0.002c-6.147,0-11.13,4.984-11.13,11.13c0,6.147,4.984,11.13,11.13,11.13l53.257-0.002
			c-4.202,29.241-13.831,56.749-27.838,81.469c-19.938-31.511-59.418-46.568-61.414-47.311c-5.757-2.144-12.17,0.781-14.317,6.541
			c-2.147,5.76,0.781,12.17,6.541,14.317c0.455,0.169,43.502,16.549,55.29,48.116c-4.724,6.541-9.777,12.827-15.135,18.837
			c-0.986,0.45-1.923,1.05-2.775,1.808c-15.77,14.004-42.507,22.365-71.522,22.365c-18.204,0-35.591-3.27-50.279-9.454
			c-23.412-9.855-47.727-14.854-72.271-14.854h-53.31c-6.147,0-11.13,4.984-11.13,11.13s4.983,11.13,11.13,11.13h53.31
			c21.562,0,42.971,4.411,63.633,13.109c17.399,7.325,37.773,11.198,58.918,11.198c6.637,0,13.196-0.395,19.604-1.154
			c-35.052,21.004-76.026,33.099-119.778,33.099c-97.603,0-181.411-60.142-216.349-145.306h6.315
			c16.108,0.001,31.703,6.713,42.789,18.414c7.808,8.243,17.376,15.419,28.436,21.325c1.67,0.893,3.464,1.316,5.234,1.316
			c3.976,0,7.824-2.137,9.828-5.889c2.896-5.422,0.848-12.166-4.575-15.061c-8.944-4.778-16.603-10.497-22.763-16.998
			c-15.27-16.119-36.756-25.365-58.948-25.366l-14.152-0.001c-3.144-10.634-5.55-21.579-7.159-32.779l21.309,0.001
			c2.72,0,5.461,0.19,8.144,0.567c0.524,0.073,1.044,0.109,1.557,0.109c5.463,0,10.23-4.024,11.009-9.588
			c0.853-6.088-3.391-11.714-9.48-12.566c-3.704-0.519-7.483-0.781-11.231-0.781l-23.433-0.004
			c-0.174-3.689-0.272-7.398-0.272-11.13c0-11.242,0.815-22.294,2.356-33.116h42.486c18.646,0,37.02-5.532,53.135-15.996
			c13.54-8.793,30.244-14.819,48.307-17.426c6.084-0.878,10.305-6.521,9.426-12.606c-0.878-6.084-6.525-10.306-12.606-9.426
			c-21.231,3.064-41.029,10.253-57.253,20.789c-12.497,8.115-26.677,12.405-41.01,12.405H28.906
			c5.856-24.011,15.425-46.579,28.07-67.059h65.459c6.147,0,11.13-4.984,11.13-11.13c0-6.146-4.983-11.13-11.13-11.13H72.562
			c6.201-7.844,12.899-15.275,20.036-22.261h141.142c6.147,0,11.13-4.984,11.13-11.13c0-6.146-4.983-11.13-11.13-11.13H118.944
			C157.477,38.795,204.84,22.261,256,22.261c84.023,0,157.821,44.572,199.024,111.304H322.783c-6.146,0-11.13,4.984-11.13,11.13
			s4.984,11.13,11.13,11.13h144.373c6.764,14.2,12.13,29.186,15.933,44.779l-181.515-0.233c-9.386-0.012-18.379-2.965-26.005-8.538
			c-17.005-12.428-38.409-20.836-61.897-24.316c-6.075-0.913-11.74,3.298-12.641,9.378c-0.9,6.082,3.298,11.742,9.38,12.641
			c19.932,2.953,37.923,9.962,52.025,20.268c11.458,8.372,24.981,12.808,39.112,12.826l185.835,0.239
			c1.542,10.826,2.357,21.882,2.357,33.129C489.739,259.732,489.641,263.442,489.468,267.13z"/>
	</g>
</g>
<g>
	<g>
		<path d="M333.805,332.439c-0.852-6.088-6.472-10.329-12.564-9.484c-18.157,2.537-35.105,11.267-47.723,24.586
			c-10.573,11.159-25.47,19.951-43.08,25.422c-5.87,1.824-9.15,8.061-7.327,13.932c1.483,4.771,5.879,7.831,10.626,7.831
			c1.093,0,2.206-0.162,3.306-0.504c21.246-6.6,39.446-17.448,52.636-31.371c9.16-9.669,21.464-16.008,34.643-17.848
			C330.41,344.152,334.655,338.528,333.805,332.439z"/>
	</g>
</g>
<g>
</g>
<g>
</g>
<g>
</g>
<g>
</g>
<g>
</g>
<g>
</g>
<g>
</g>
<g>
</g>
<g>
</g>
<g>
</g>
<g>
</g>
<g>
</g>
<g>
</g>
<g>
</g>
<g>
</g>
</svg>
