<?xml version="1.0" encoding="iso-8859-1"?>
<!-- Generator: Adobe Illustrator 19.0.0, SVG Export Plug-In . SVG Version: 6.00 Build 0)  -->
<svg version="1.1" id="Layer_1" xmlns="http://www.w3.org/2000/svg" xmlns:xlink="http://www.w3.org/1999/xlink" x="0px" y="0px"
	 viewBox="0 0 512 512" style="enable-background:new 0 0 512 512;" xml:space="preserve">
<g>
	<g>
		<path d="M77.298,406.607c-0.372-0.531-0.815-1.06-1.273-1.518l-0.003-0.003c-4.346-4.345-11.392-4.343-15.739,0.002
			c-4.105,4.105-4.332,10.622-0.681,14.996c2.175,2.637,5.357,4.039,8.588,4.039c2.204,0,4.43-0.653,6.373-2.013
			C79.599,418.583,80.823,411.643,77.298,406.607z"/>
	</g>
</g>
<g>
	<g>
		<path d="M458.298,99.117c7.081-12.708,5.24-29.089-5.544-39.875c-10.784-10.783-27.167-12.625-39.875-5.544
			C365.157,16.602,305.926-2.354,245.095,0.234C180.875,2.955,120.46,29.501,74.978,74.983
			c-41.772,41.771-67.96,97.096-73.741,155.782C-4.465,288.643,9.79,347.197,41.375,395.64c2.134,3.273,5.698,5.053,9.334,5.053
			c2.085,0,4.193-0.584,6.068-1.808c5.149-3.358,6.602-10.253,3.246-15.403C0.091,291.563,13.002,168.441,90.718,90.725
			C174.587,6.854,305.144-1.18,398.15,70.438c-4.799,12.029-2.341,26.304,7.382,36.028c6.51,6.509,15.061,9.764,23.611,9.764
			c4.221,0,8.441-0.797,12.416-2.383c71.618,93.009,63.586,223.56-20.287,307.433c-45.905,45.905-105.56,68.956-165.287,68.954
			c-57.481-0.001-115.026-21.356-160.415-64.237c-4.468-4.222-11.512-4.02-15.734,0.446c-4.222,4.469-4.021,11.513,0.446,15.735
			c47.745,45.107,109.996,69.825,175.654,69.823c1.162,0,2.336-0.008,3.501-0.023c67.072-0.897,130.136-27.518,177.576-74.957
			c45.485-45.485,72.031-105.905,74.749-170.131C514.338,206.053,495.391,146.836,458.298,99.117z M437.014,90.724
			c-2.103,2.103-4.897,3.26-7.87,3.26c-2.973,0-5.768-1.158-7.87-3.26c-2.102-2.102-3.26-4.897-3.26-7.87
			c0-2.973,1.158-5.768,3.26-7.87c2.103-2.103,4.897-3.26,7.87-3.26c2.973,0,5.768,1.158,7.87,3.26s3.26,4.897,3.26,7.87
			C440.274,85.826,439.116,88.621,437.014,90.724z"/>
	</g>
</g>
<g>
	<g>
		<path d="M422.845,250.323c-0.017-0.505-0.037-1.011-0.058-1.516c-0.073-1.72-0.167-3.435-0.292-5.142
			c-0.023-0.313-0.047-0.625-0.071-0.938c-0.129-1.629-0.286-3.251-0.462-4.867c-0.075-0.693-0.155-1.386-0.238-2.078
			c-0.15-1.243-0.317-2.482-0.495-3.718c-0.166-1.154-0.346-2.303-0.535-3.451c-0.154-0.929-0.311-1.859-0.48-2.784
			c-0.186-1.018-0.381-2.032-0.585-3.045c-0.106-0.523-0.22-1.043-0.331-1.563c-0.467-2.206-0.978-4.401-1.535-6.584
			c-0.037-0.144-0.071-0.287-0.108-0.431c-4.915-19.074-13.187-37.189-24.647-53.616c-0.21-0.302-0.444-0.582-0.68-0.859
			c-30.267-42.736-80.094-70.686-136.33-70.686c-92.059,0-166.955,74.896-166.955,166.955c0,1.319,0.019,2.636,0.05,3.952
			c0.013,0.567,0.037,1.13,0.056,1.694c0.022,0.715,0.047,1.427,0.08,2.138c0.036,0.766,0.08,1.528,0.126,2.291
			c0.028,0.457,0.056,0.916,0.087,1.372c0.065,0.945,0.137,1.887,0.217,2.827c0.016,0.179,0.032,0.358,0.048,0.536
			c1.607,18.195,6.143,35.558,13.136,51.618c0.09,0.207,0.181,0.414,0.272,0.62c0.352,0.8,0.707,1.598,1.072,2.392
			c0.315,0.69,0.639,1.375,0.964,2.061c0.165,0.346,0.325,0.695,0.492,1.038c5.836,12.11,13.138,23.544,21.811,33.997
			c0.292,0.351,0.606,0.677,0.934,0.986c30.65,36.318,76.478,59.432,127.611,59.432c75.281,0,139.075-50.088,159.831-118.685
			c0.068-0.19,0.139-0.378,0.197-0.574c0.126-0.421,0.23-0.847,0.353-1.269c0.298-1.027,0.582-2.061,0.86-3.096
			c0.203-0.755,0.406-1.508,0.599-2.266c0.361-1.421,0.701-2.852,1.025-4.287c0.129-0.572,0.253-1.145,0.375-1.72
			c0.298-1.391,0.58-2.787,0.844-4.191c0.065-0.343,0.135-0.683,0.197-1.026c0.316-1.744,0.6-3.499,0.861-5.261
			c0.06-0.407,0.115-0.816,0.171-1.225c0.209-1.484,0.398-2.975,0.568-4.472c0.042-0.372,0.088-0.742,0.128-1.115
			c0.19-1.793,0.355-3.594,0.487-5.404c0.023-0.314,0.039-0.627,0.06-0.94c0.102-1.51,0.184-3.027,0.246-4.548
			c0.02-0.482,0.04-0.963,0.055-1.444c0.058-1.804,0.098-3.613,0.098-5.431C422.952,254.1,422.908,252.21,422.845,250.323z
			 M128.913,325.134c-0.146-0.268-0.289-0.538-0.433-0.807c-0.578-1.073-1.141-2.156-1.692-3.246
			c-0.513-1.021-1.021-2.042-1.509-3.074c-0.178-0.373-0.351-0.749-0.525-1.124c-7.236-15.614-11.684-32.473-13.021-49.75h67.532
			c0.119,0.012,0.238,0.023,0.358,0.032c2.823,0.206,5.033,2.582,5.033,5.409c0,2.828-2.211,5.203-5.033,5.409
			c-0.12,0.009-0.239,0.02-0.358,0.032h-15.403c-15.275,0-27.702,12.427-27.702,27.702c0,15.275,12.427,27.702,27.702,27.702h33.144
			c3.001,0,5.442,2.441,5.442,5.442c0,3.001-2.441,5.442-5.442,5.442h-55.553C136.791,338.271,132.591,331.866,128.913,325.134z
			 M255.994,400.697c-35.489,0-68.029-12.851-93.229-34.133h34.238c15.275,0,27.702-12.427,27.702-27.702
			c0-15.275-12.427-27.702-27.702-27.702h-33.144c-3.001,0-5.442-2.441-5.442-5.442c0-3.001,2.441-5.442,5.442-5.442h16.572
			c0.787,0,1.555-0.082,2.296-0.239c13.679-1.745,24.188-13.53,24.188-27.463c0-13.921-10.493-25.698-24.156-27.457
			c-0.751-0.16-1.53-0.244-2.328-0.244h-68.708c5.703-74.605,68.232-133.564,144.272-133.564c40.942,0,77.964,17.096,104.31,44.521
			h-76.484c-18.412,0-33.391,14.979-33.391,33.391c0,18.412,14.979,33.391,33.391,33.391h44.521c6.137,0,11.13,4.993,11.13,11.13
			c0,6.137-4.993,11.13-11.13,11.13h-22.261c-0.835,0-1.647,0.093-2.43,0.27c-16.572,2.026-29.326,16.27-29.326,33.121
			c0,16.837,12.733,31.072,29.285,33.116c0.795,0.18,1.622,0.275,2.47,0.275h83.471
			C367.703,363.894,316.068,400.697,255.994,400.697z M400.631,260.003c-0.011,0.42-0.033,0.838-0.048,1.258
			c-0.032,0.914-0.069,1.828-0.119,2.739c-0.027,0.491-0.061,0.981-0.094,1.47c-0.055,0.84-0.114,1.682-0.183,2.521
			c-0.042,0.514-0.089,1.028-0.137,1.542c-0.076,0.811-0.158,1.622-0.247,2.431c-0.058,0.526-0.117,1.053-0.181,1.578
			c-0.096,0.794-0.201,1.585-0.312,2.375c-0.073,0.533-0.145,1.066-0.224,1.596c-0.116,0.777-0.245,1.553-0.374,2.328
			c-0.09,0.539-0.173,1.08-0.268,1.616c-0.131,0.741-0.279,1.48-0.423,2.219c-0.26,1.339-0.538,2.671-0.835,3.997
			c-0.08,0.359-0.156,0.72-0.238,1.08c-0.05,0.214-0.106,0.426-0.157,0.64h-89.357c-0.18-0.022-0.362-0.04-0.545-0.053
			c-5.778-0.421-10.304-5.287-10.304-11.077c0-5.79,4.526-10.656,10.304-11.077c0.183-0.013,0.364-0.031,0.543-0.053h20.907
			c18.412,0,33.391-14.979,33.391-33.391c0-18.412-14.977-33.392-33.389-33.392h-44.521c-6.137,0-11.13-4.993-11.13-11.13
			c0-6.137,4.993-11.13,11.13-11.13h94.054c8.77,13.67,15.303,28.907,19.082,45.187c0.011,0.047,0.022,0.092,0.032,0.139
			c0.254,1.101,0.495,2.206,0.724,3.317c0.047,0.23,0.09,0.461,0.137,0.691c0.342,1.696,0.648,3.405,0.929,5.122
			c0.099,0.608,0.203,1.215,0.294,1.825c0.114,0.751,0.216,1.506,0.317,2.262c0.111,0.835,0.216,1.672,0.313,2.51
			c0.071,0.609,0.146,1.218,0.209,1.829c0.146,1.414,0.273,2.829,0.376,4.25c0.032,0.444,0.056,0.89,0.085,1.335
			c0.073,1.144,0.136,2.291,0.183,3.438c0.019,0.461,0.038,0.922,0.052,1.383c0.048,1.538,0.081,3.08,0.081,4.625
			C400.689,257.337,400.668,258.67,400.631,260.003z"/>
	</g>
</g>
<g>
</g>
<g>
</g>
<g>
</g>
<g>
</g>
<g>
</g>
<g>
</g>
<g>
</g>
<g>
</g>
<g>
</g>
<g>
</g>
<g>
</g>
<g>
</g>
<g>
</g>
<g>
</g>
<g>
</g>
</svg>
