<?xml version="1.0" encoding="iso-8859-1"?>
<!-- Generator: Adobe Illustrator 18.1.1, SVG Export Plug-In . SVG Version: 6.00 Build 0)  -->
<svg version="1.1" id="Capa_1" xmlns="http://www.w3.org/2000/svg" xmlns:xlink="http://www.w3.org/1999/xlink" x="0px" y="0px"
	 viewBox="0 0 42.36 42.36" style="enable-background:new 0 0 42.36 42.36;" xml:space="preserve">
<g>
	<g>
		<path style="fill:#030104;" d="M21.18,0C9.501,0,0,9.501,0,21.18c0,11.68,9.501,21.18,21.18,21.18c11.68,0,21.18-9.5,21.18-21.18
			C42.36,9.501,32.86,0,21.18,0z M21.18,40.86c-10.852,0-19.68-8.828-19.68-19.68S10.328,1.5,21.18,1.5s19.68,8.828,19.68,19.68
			S32.032,40.86,21.18,40.86z"/>
		<path style="fill:#030104;" d="M39.61,16.143c-0.103-0.367-0.426-0.983-1.459-0.983l-0.213,0.006c-0.059,0-0.124-0.007-0.193-0.02
			c-0.172-0.035-0.483-0.174-0.734-0.286c-0.184-0.081-0.357-0.158-0.505-0.213c-1.421-0.529-2.493-0.259-3.589,0.896
			c-0.303,0.315-0.704,0.858-0.971,1.256c-1.179,1.768-1.134,2.91,0.161,4.074c0.25,0.223,0.604,0.613,1.021,1.073
			c1.25,1.377,3.14,3.457,5.454,4.618l0.121,0.06l0.229,0.024c0.263,0,0.763-0.173,0.765-0.769c0.387-1.528,0.583-3.109,0.583-4.699
			C40.28,19.472,40.053,17.778,39.61,16.143z M38.418,24.746c-1.713-1.092-3.19-2.719-4.187-3.816
			c-0.456-0.503-0.817-0.9-1.122-1.174c-0.572-0.515-0.834-0.749,0.084-2.126c0.227-0.339,0.576-0.811,0.81-1.055
			c0.575-0.605,0.993-0.676,1.257-0.676c0.21,0,0.441,0.049,0.727,0.153c0.107,0.04,0.234,0.097,0.42,0.181
			c0.351,0.155,0.713,0.316,1.049,0.383c0.16,0.032,0.317,0.079,0.49,0.049l0.213-0.006c0.014,0,0.025,0,0.037,0.001
			c0.386,1.467,0.584,2.987,0.584,4.52C38.78,22.379,38.659,23.576,38.418,24.746z"/>
		<path style="fill:#030104;" d="M32.771,13.222c0.38,0.289,0.862,0.369,1.283,0.21c0.396-0.145,0.632-0.469,0.806-0.802
			c0.707,0.828,1.436,1.136,1.942,1.245c0.09,0.02,0.183,0.03,0.272,0.03c0.394,0,0.746-0.196,0.943-0.525
			c0.217-0.361,0.215-0.82-0.004-1.227c-0.91-1.694-2.068-3.238-3.441-4.589C34.326,7.322,34,7.189,33.65,7.189
			c-0.512,0-0.959,0.277-1.171,0.723c-0.392,0.827-0.804,2.133-0.542,3.658C31.959,11.691,32.157,12.75,32.771,13.222z
			 M33.755,8.868c0.829,0.848,1.602,1.803,2.302,2.853c-0.134-0.149-0.271-0.33-0.408-0.547c-0.291-0.462-0.64-0.559-0.881-0.559
			c-0.638,0-0.9,0.584-1.093,1.012c-0.039,0.088-0.072,0.155-0.099,0.206c-0.062-0.135-0.127-0.32-0.16-0.517
			C33.23,10.224,33.518,9.358,33.755,8.868z"/>
		<path style="fill:#030104;" d="M21.179,6.034c0.176,0.016,0.396,0.023,0.626,0.023c0.348,0,0.712-0.018,0.977-0.047
			c1.795-0.201,2.684-0.954,3.112-1.551c0.246-0.343,0.3-0.764,0.146-1.154c-0.164-0.422-0.555-0.743-1.017-0.838
			c-2.307-0.468-4.753-0.507-7.078-0.113c-0.48,0.082-0.846,0.381-0.978,0.799c-0.129,0.405-0.009,0.843,0.319,1.17
			C17.979,5.014,19.215,5.872,21.179,6.034z M24.401,3.876c-0.324,0.273-0.871,0.541-1.787,0.644
			c-0.344,0.036-0.945,0.048-1.312,0.021c-0.925-0.078-1.728-0.351-2.394-0.814C20.725,3.492,22.614,3.544,24.401,3.876z"/>
		<path style="fill:#030104;" d="M22.991,24.628c-1.621,0.163-3.713-0.206-4.483-0.722c-0.064-0.059-0.224-0.396-0.232-0.677
			c-0.048-1.397,0.829-1.44,1.117-1.454c1.24-0.058,2.031-0.521,2.476-0.9c0.547-0.467,0.799-1.341,0.856-1.739
			c0.073-0.525,0.123-1.128,0.149-1.789c0.064-1.744,0.432-2.767,1.006-2.807c1.723-0.12,1.9-1.112,1.883-1.843
			c0-0.53-0.348-0.807-0.654-1.052c-0.302-0.24-0.758-0.604-1.373-1.456c-1.181-1.634-2.748-3.267-6.194-4.147
			c-0.851-0.217-1.691-0.327-2.497-0.327c-1.968,0-3.464,0.644-4.667,1.272C10.066,7.15,9.779,7.24,9.572,7.24
			c-0.028,0-0.054-0.002-0.086-0.005C9.301,7.213,9.102,7.19,8.911,7.19c-0.502,0-0.889,0.143-1.185,0.436
			C7.284,8.066,6.87,8.518,6.494,8.971C6.01,9.552,5.92,10.566,6.56,11.15c0.652,0.589,1.516,0.799,2.394,0.589
			c0.853-0.205,1.264-0.034,1.264,0.639c0,0.209-0.051,0.605-0.116,1.105c-0.215,1.65-0.539,4.143,0.211,6.096l0.089,0.231
			c0.89,2.334,2.975,7.799,7.924,8.309c1.723,0.179,3.024,0.269,3.871,0.269l0.149-0.001c0.026,0,0.052,0.004,0.071,0.01
			c-0.006,0.407-0.104,1.033-0.495,1.846c-1.244,2.578,0.325,5.484,4.803,8.885c0.257,0.193,0.547,0.293,0.863,0.293
			c0.668,0,1.231-0.434,1.78-0.852l0.131-0.102c0.541-0.408,0.894-1.139,0.857-1.773c-0.051-0.899-0.16-3.082-0.098-3.899
			c0.018-0.222,0.068-0.458,0.126-0.73c0.217-1.032,0.514-2.446-0.572-4.54C28.655,25.291,26.334,24.307,22.991,24.628z
			 M28.916,31.754c-0.062,0.302-0.129,0.613-0.151,0.919c-0.071,0.891,0.026,2.954,0.092,4.104c0.007,0.123-0.12,0.385-0.266,0.494
			l-0.138,0.104c-0.23,0.177-0.709,0.543-0.824,0.555c-3.596-2.729-5.461-4.755-4.358-7.039c0.554-1.15,0.656-2.066,0.644-2.635
			c-0.021-0.857-0.824-1.37-1.59-1.37l-0.133,0.001c-0.794,0-2.044-0.087-3.715-0.26c-4.052-0.418-5.873-5.229-6.651-7.283
			L11.71,19.04c-0.615-1.6-0.319-3.867-0.122-5.378c0.071-0.544,0.127-0.974,0.127-1.284c0-1.344-0.866-2.212-2.206-2.212
			c-0.286,0-0.593,0.039-0.91,0.115c-0.39,0.094-0.712,0.027-0.993-0.207C7.605,10.032,7.618,9.965,7.645,9.93
			C7.991,9.514,8.374,9.096,8.75,8.712c0.002,0,0.041-0.016,0.168-0.016c0.121,0,0.264,0.014,0.399,0.029
			c0.492,0.062,1.12-0.082,1.752-0.408c1.095-0.572,2.333-1.103,3.973-1.103c0.682,0,1.396,0.095,2.127,0.28
			c2.983,0.763,4.334,2.168,5.348,3.573c0.736,1.02,1.312,1.478,1.696,1.783c0.017,0.014,0.033,0.028,0.052,0.042
			c0,0.029,0,0.054,0,0.061c-0.012,0.01-0.089,0.062-0.491,0.09c-1.49,0.104-2.299,1.532-2.401,4.247
			c-0.021,0.599-0.067,1.149-0.135,1.636c-0.047,0.323-0.241,0.72-0.344,0.808c-0.266,0.226-0.755,0.505-1.573,0.543
			c-1.605,0.076-2.604,1.255-2.546,3.002c0.019,0.521,0.271,1.448,0.892,1.867c1.051,0.703,3.021,1.018,4.508,1.018
			c0.338,0,0.662-0.014,0.964-0.043c0.352-0.035,0.7-0.053,1.037-0.053c2.117,0,3.566,0.721,4.305,2.144
			C29.321,29.83,29.116,30.808,28.916,31.754z"/>
	</g>
</g>
<g>
</g>
<g>
</g>
<g>
</g>
<g>
</g>
<g>
</g>
<g>
</g>
<g>
</g>
<g>
</g>
<g>
</g>
<g>
</g>
<g>
</g>
<g>
</g>
<g>
</g>
<g>
</g>
<g>
</g>
</svg>
